<?xml version="1.0" encoding="UTF-8"?>
<svg version="1.1" xmlns="http://www.w3.org/2000/svg" width="306" height="200">
<path d="M0 0 C3.06465807 1.73025487 5.40191031 3.80382062 7 7 C7.54703337 11.48388006 7.47032752 15.020151 5.5 19.125 C3.51359907 21.40936107 1.65776095 23.21803554 -0.62890625 25.16015625 C-5.09104506 29.02659902 -9.27563027 33.12735794 -13.4375 37.3125 C-14.15615234 38.02728516 -14.87480469 38.74207031 -15.61523438 39.47851562 C-16.63907227 40.50428711 -16.63907227 40.50428711 -17.68359375 41.55078125 C-18.29775146 42.16606689 -18.91190918 42.78135254 -19.54467773 43.4152832 C-21.95832112 46.04352665 -22.12570859 47.79484382 -22.13130188 51.26226807 C-22.13531006 52.15666092 -22.13931824 53.05105377 -22.14344788 53.97254944 C-22.1426548 55.44841774 -22.1426548 55.44841774 -22.1418457 56.95410156 C-22.14532013 57.98838791 -22.14879456 59.02267426 -22.15237427 60.08830261 C-22.15973987 62.34020701 -22.16508095 64.5921187 -22.16866493 66.84403229 C-22.17581616 70.40802436 -22.19147302 73.9718776 -22.21000671 77.53582764 C-22.26253737 87.67116381 -22.31045595 97.80642517 -22.32592773 107.94189453 C-22.33600511 114.13647069 -22.36532588 120.33069976 -22.40724754 126.52513885 C-22.41956787 128.88699468 -22.42467693 131.24889953 -22.42244911 133.61078644 C-22.42009819 136.9170081 -22.44224878 140.22223324 -22.4699707 143.52832031 C-22.46006859 144.99204323 -22.46006859 144.99204323 -22.44996643 146.4853363 C-22.5488333 153.66719957 -24.60942047 157.84927132 -29.71386719 162.97265625 C-30.20828308 163.47337646 -30.70269897 163.97409668 -31.21209717 164.48999023 C-31.73507385 165.00891846 -32.25805054 165.52784668 -32.796875 166.0625 C-33.62557098 166.89406616 -33.62557098 166.89406616 -34.4710083 167.74243164 C-35.63511738 168.90789439 -36.8017266 170.07086475 -37.97070312 171.23144531 C-39.73800796 172.98808036 -41.49443449 174.75507919 -43.25 176.5234375 C-58.94851434 192.24670216 -58.94851434 192.24670216 -65.1875 192.5625 C-69.93826858 191.86156693 -72.3012755 190.52299438 -75.8125 187.375 C-77.68144044 183.63711911 -77.65697093 180.09017388 -77 176 C-75.92321341 173.51782998 -74.81154204 172.07794528 -73 170 C-72.34 170 -71.68 170 -71 170 C-71 169.34 -71 168.68 -71 168 C-69.7421875 166.765625 -69.7421875 166.765625 -67.875 165.25 C-63.58182949 161.5988712 -59.56108379 157.71700261 -55.5625 153.75 C-54.93520996 153.13543945 -54.30791992 152.52087891 -53.66162109 151.88769531 C-52.77917725 151.00742676 -52.77917725 151.00742676 -51.87890625 150.109375 C-51.3485376 149.58311523 -50.81816895 149.05685547 -50.27172852 148.51464844 C-47.96675574 145.76939002 -47.87428217 143.08029299 -47.86869812 139.65544128 C-47.86468994 138.76808792 -47.86068176 137.88073456 -47.85655212 136.9664917 C-47.85708084 135.99552551 -47.85760956 135.02455933 -47.8581543 134.02416992 C-47.85467987 132.99949112 -47.85120544 131.97481232 -47.84762573 130.91908264 C-47.84026781 128.69120515 -47.83492262 126.46332033 -47.83133507 124.23543358 C-47.8241755 120.70916658 -47.80851277 117.1830392 -47.78999329 113.65681458 C-47.73749861 103.62987172 -47.68953844 93.60300507 -47.67407227 83.57592773 C-47.66399493 77.44503562 -47.63467626 71.31449422 -47.59275246 65.18374062 C-47.58043414 62.84700484 -47.5753227 60.51021956 -47.57755089 58.17345238 C-47.57990186 54.90325832 -47.55775154 51.63407166 -47.5300293 48.36401367 C-47.53663071 47.39912018 -47.54323212 46.43422668 -47.55003357 45.44009399 C-47.4486485 38.15547842 -45.23088117 33.98954534 -40.07080078 28.81201172 C-39.529888 28.26479462 -38.98897522 27.71757751 -38.43167114 27.15377808 C-37.57217361 26.30035324 -37.57217361 26.30035324 -36.6953125 25.4296875 C-36.09371307 24.82617462 -35.49211365 24.22266174 -34.87228394 23.6008606 C-33.60562596 22.33284846 -32.33646614 21.06733105 -31.06494141 19.80419922 C-29.13079543 17.88076334 -27.20755332 15.94688923 -25.28515625 14.01171875 C-24.04751571 12.77539994 -22.80925484 11.53970174 -21.5703125 10.3046875 C-21.00136261 9.73168915 -20.43241272 9.1586908 -19.84622192 8.56832886 C-13.97150369 2.76129146 -8.70594167 -1.8500126 0 0 Z " fill="#FFFFFF" transform="translate(81,4)"/>
<path d="M0 0 C2.89828163 2.5532481 3.81130351 3.56949616 4.625 7.3125 C4.66768259 9.03858395 4.67805403 10.76563259 4.6640625 12.4921875 C4.65842285 13.39437012 4.6527832 14.29655273 4.64697266 15.22607422 C4.63972168 15.91459473 4.6324707 16.60311523 4.625 17.3125 C5.32584717 17.28631592 6.02669434 17.26013184 6.7487793 17.2331543 C9.9364565 17.1289646 13.12377526 17.06410417 16.3125 17 C17.41529297 16.95810547 18.51808594 16.91621094 19.65429688 16.87304688 C27.86713852 16.74898582 27.86713852 16.74898582 31.80859375 19.6796875 C34.38513524 23.41428742 35.72521273 25.70909629 35.4375 30.3125 C34.40433857 34.12724991 33.29158209 37.24796954 29.85839844 39.44091797 C27.16472088 40.49212357 25.09148133 40.53990535 22.203125 40.5078125 C20.66591797 40.49814453 20.66591797 40.49814453 19.09765625 40.48828125 C18.03417969 40.47152344 16.97070312 40.45476562 15.875 40.4375 C14.79605469 40.42847656 13.71710938 40.41945312 12.60546875 40.41015625 C9.94508722 40.38661305 7.28515664 40.35372799 4.625 40.3125 C4.63388245 41.21372589 4.64276489 42.11495178 4.6519165 43.04348755 C4.73215123 51.54749735 4.79300955 60.05137955 4.83224869 68.55568123 C4.85310038 72.92758491 4.88137342 77.29917514 4.92675781 81.67089844 C4.97030247 85.89194687 4.9941553 90.11269429 5.00450897 94.33395004 C5.01188494 95.94228731 5.02628867 97.55060859 5.04792023 99.15881729 C5.07707012 101.41629547 5.08095137 103.67253889 5.07910156 105.93017578 C5.08798401 107.21368927 5.09686646 108.49720276 5.10601807 109.8196106 C4.53550564 113.96235896 3.24053701 116.08583307 0.625 119.3125 C-3.6182447 122.1413298 -7.39234529 121.96518001 -12.375 121.3125 C-16.03254849 119.17893005 -17.76900726 117.16811581 -19.375 113.3125 C-19.63226891 111.1660099 -19.63226891 111.1660099 -19.64242554 108.8097229 C-19.65095551 107.91258072 -19.65948547 107.01543854 -19.66827393 106.09111023 C-19.66691437 104.62602776 -19.66691437 104.62602776 -19.66552734 103.13134766 C-19.67224457 102.09676926 -19.67896179 101.06219086 -19.68588257 99.9962616 C-19.70489508 96.57297984 -19.7087884 93.14989379 -19.7109375 89.7265625 C-19.71736305 87.34768594 -19.72409123 84.96881018 -19.73110962 82.5899353 C-19.74309046 77.60160489 -19.7467896 72.61334378 -19.74560547 67.625 C-19.74540221 61.23356427 -19.77270802 54.84257286 -19.80714989 48.45124245 C-19.82938882 43.53730224 -19.83344393 38.62346948 -19.83238602 33.7094841 C-19.83474636 31.35316816 -19.84359416 28.99684946 -19.85905075 26.64058304 C-19.87864955 23.3442194 -19.87289604 20.04882063 -19.86083984 16.75244141 C-19.87207886 15.77976822 -19.88331787 14.80709503 -19.89489746 13.8049469 C-19.84087605 7.99141949 -19.18634266 4.77360315 -15.375 0.3125 C-10.76018917 -3.3134228 -4.88377833 -2.44188917 0 0 Z " fill="#FFFFFF" transform="translate(89.375,47.6875)"/>
<path d="M0 0 C4.00825616 2.11756929 6.36967042 3.76926215 8 8 C8.27415466 10.60458374 8.27415466 10.60458374 8.30639648 13.59130859 C8.32238388 14.71282318 8.33837128 15.83433777 8.35484314 16.98983765 C8.36020584 18.1971756 8.36556854 19.40451355 8.37109375 20.6484375 C8.38012222 21.89372223 8.3891507 23.13900696 8.39845276 24.42202759 C8.412962 27.05656395 8.42263864 29.69066647 8.42553711 32.32519531 C8.42984973 35.02188289 8.45073133 37.71761817 8.48706055 40.4140625 C8.53583983 44.30498388 8.55131993 48.19474211 8.55859375 52.0859375 C8.57812607 53.28922699 8.59765839 54.49251648 8.61778259 55.73226929 C8.56754672 65.05433249 8.56754672 65.05433249 5.59008789 68.74462891 C1.67278151 72.15570218 -0.70192521 72.29609362 -5.74609375 72.20703125 C-8.95787959 71.91201453 -10.61184765 71.17743303 -13 69 C-16.0049096 63.32980202 -16.51834656 58.41783627 -16.6875 52.0625 C-16.72166016 51.18787109 -16.75582031 50.31324219 -16.79101562 49.41210938 C-16.87275657 47.27516746 -16.9380713 45.13760782 -17 43 C-17.79696289 43.80743652 -18.59392578 44.61487305 -19.41503906 45.44677734 C-22.37689018 48.44486441 -25.34538467 51.43629839 -28.31591797 54.42578125 C-29.59996413 55.71987675 -30.88220846 57.01576272 -32.16259766 58.31347656 C-34.00471261 60.17988628 -35.85323936 62.03973332 -37.703125 63.8984375 C-38.2730719 64.47870697 -38.8430188 65.05897644 -39.43023682 65.65682983 C-43.57496089 69.80271282 -46.51471293 72.27235204 -52.4375 72.375 C-55.79883618 72.29760081 -56.94646375 72.03189393 -59.9375 70.25 C-63.02255654 66.88448377 -63.89459487 65.15945644 -64.3125 60.5625 C-63.7718132 54.39867046 -60.27546539 51.02427228 -56.02539062 46.76660156 C-55.53233932 46.27004562 -55.03928802 45.77348969 -54.53129578 45.2618866 C-52.91125201 43.63308848 -51.28406013 42.01165871 -49.65625 40.390625 C-48.5239994 39.25702638 -47.39204578 38.12313107 -46.26037598 36.98895264 C-43.89312988 34.61876418 -41.52231951 32.25221562 -39.14892578 29.88818359 C-36.10557939 26.85625727 -33.07133456 23.81540561 -30.03968048 20.77179337 C-27.70646579 18.43135837 -25.36851693 16.09569949 -23.02909851 13.76146698 C-21.9080672 12.64177034 -20.78852107 11.52058471 -19.67048645 10.39789581 C-18.10997823 8.83231679 -16.54321714 7.27327832 -14.97460938 5.71582031 C-14.0843103 4.82711243 -13.19401123 3.93840454 -12.2767334 3.02276611 C-8.44037641 -0.38564917 -4.97994296 -0.42202906 0 0 Z " fill="#FFFFFF" transform="translate(294,97)"/>
<path d="M0 0 C3.05357079 1.61320721 5.23833566 3.03060902 7.375 5.75 C8.74912553 10.6968519 8.92495282 14.3525716 6.4296875 18.796875 C3.64155295 22.73153217 0.19472618 26.021293 -3.25 29.375 C-3.8996875 30.01566406 -4.549375 30.65632813 -5.21875 31.31640625 C-6.80800885 32.88229364 -8.40176417 34.44328509 -10 36 C-5.79858604 41.03077437 -1.40140657 45.68328135 3.29492188 50.25585938 C6.73618134 53.6400025 7.9271647 54.88926175 8.25 59.8125 C8.18008805 64.63642428 6.56505956 67.25435665 3.375 70.8125 C-0.29234127 72.64617063 -3.99788614 72.82244087 -8 72 C-13.05502535 69.16172757 -16.87393834 65.36873994 -20.875 61.25 C-21.46796875 60.64800781 -22.0609375 60.04601562 -22.671875 59.42578125 C-24.11923124 57.95508055 -25.5602763 56.4781733 -27 55 C-29.89463613 56.30493326 -31.90396626 57.67698409 -34.09375 59.96875 C-34.64933594 60.53980469 -35.20492187 61.11085937 -35.77734375 61.69921875 C-36.34582031 62.29347656 -36.91429687 62.88773438 -37.5 63.5 C-38.63051817 64.68178883 -39.76579768 65.85904495 -40.90625 67.03125 C-41.40447266 67.55267578 -41.90269531 68.07410156 -42.41601562 68.61132812 C-46.23137934 71.95624009 -49.81427171 72.48398187 -54.7421875 72.39453125 C-58.59075968 71.72202988 -60.33977988 69.79323112 -63 67 C-64.79684321 63.40631357 -64.67829428 59.90723306 -64 56 C-62.80169678 54.16160583 -62.80169678 54.16160583 -61.14746094 52.38452148 C-60.50869019 51.69389618 -59.86991943 51.00327087 -59.21179199 50.29171753 C-54.89096724 45.81475502 -50.53847093 41.37373665 -46.140625 36.97265625 C-45.10399395 35.93280494 -44.0674352 34.89288155 -43.03094482 33.85289001 C-40.87444171 31.69044347 -38.71592731 29.5300281 -36.55615234 27.37084961 C-33.78817101 24.60297071 -31.02718195 21.82822547 -28.26782608 19.05175114 C-26.13686517 16.90969356 -24.00139701 14.77217419 -21.86461639 12.63592339 C-20.84392367 11.61405104 -19.82485113 10.59055769 -18.80744171 9.56541634 C-17.39102092 8.13922479 -15.9676432 6.71995263 -14.54394531 5.30102539 C-13.73677063 4.49242569 -12.92959595 3.68382599 -12.09796143 2.85072327 C-8.36547151 -0.44190444 -4.80882256 -0.40752734 0 0 Z " fill="#FFFFFF" transform="translate(217,97)"/>
<path d="M0 0 C5.24336687 2.96557139 9.19477406 6.95632325 13.375 11.25 C14.33599609 12.22453125 14.33599609 12.22453125 15.31640625 13.21875 C16.88229364 14.80800885 18.44328509 16.40176417 20 18 C25.19797488 13.65345811 29.96812403 9.05675298 34.66796875 4.171875 C38.48597958 0.61607262 41.57057283 -0.60320742 46.8984375 -0.43359375 C50.96751068 0.40593622 53.63030812 2.65374922 56 6 C57.04848197 9.06479346 57.45810027 11.78771149 57 15 C54.88342371 19.05281252 52.23458367 22.01348088 49.00952148 25.23339844 C48.51486389 25.72995438 48.0202063 26.22651031 47.51055908 26.7381134 C45.8855722 28.36678439 44.25353456 29.98817802 42.62109375 31.609375 C41.48637522 32.74290063 40.35202698 33.87679704 39.21803284 35.01104736 C36.84643541 37.3810842 34.47152637 39.74773347 32.09399414 42.11181641 C29.04332575 45.14544708 25.99933021 48.18566762 22.9575491 51.22820663 C20.61846693 53.5670173 18.276791 55.90321597 15.93422127 58.23853302 C14.81045646 59.35911216 13.68729937 60.48030108 12.56475639 61.60210419 C10.99936612 63.16533259 9.43073151 64.7252276 7.86108398 66.28417969 C6.9685643 67.17288757 6.07604462 68.06159546 5.15647888 68.97723389 C1.63676191 72.27871032 -0.99158672 72.38957041 -5.671875 72.359375 C-9.59004236 71.75455722 -11.30358816 69.83123243 -14 67 C-15.94324171 63.11351659 -15.90546348 59.19805797 -15 55 C-12.46263852 51.17673586 -9.31810222 48.14938516 -6 45 C-4.47748963 43.45998951 -2.95650845 41.91846476 -1.4375 40.375 C-0.29426248 39.24736221 0.8505287 38.12128264 2 37 C0.64937713 33.97503419 -0.85029237 31.9194306 -3.22265625 29.6171875 C-3.84333984 29.00746094 -4.46402344 28.39773437 -5.10351562 27.76953125 C-6.07321289 26.83173828 -6.07321289 26.83173828 -7.0625 25.875 C-8.3472393 24.62463926 -9.62989681 23.37213484 -10.91015625 22.1171875 C-11.76299194 21.29130127 -11.76299194 21.29130127 -12.63305664 20.44873047 C-15.68045969 17.21899486 -15.38614902 13.79079463 -15.35546875 9.55078125 C-14.7778449 5.4058541 -13.06536529 3.78021503 -10 1 C-6.38069302 -0.20643566 -3.80768995 -0.32268559 0 0 Z " fill="#FFFFFF" transform="translate(120,97)"/>
<path d="M0 0 C2.5 1.5625 2.5 1.5625 4 4 C4.55802097 7.90614682 4.58392818 10.05111671 2.5 13.4375 C-0.53037069 15.33148168 -2.55830934 15.64334247 -6.08984375 15.4453125 C-8 15 -8 15 -10.5625 12.9375 C-12.43625505 9.10852228 -12.12962701 7.06665724 -11 3 C-8.71707037 -1.16298932 -4.22696498 -0.74843646 0 0 Z M-6.75 4.1875 C-8.29839423 6.00671447 -8.29839423 6.00671447 -7.6875 8.6875 C-7.460625 9.450625 -7.23375 10.21375 -7 11 C-4.60280568 11.67958603 -4.60280568 11.67958603 -2 12 C0.2491908 10.17296773 0.2491908 10.17296773 0.25 7.5 C0.2491908 4.82703227 0.2491908 4.82703227 -2 3 C-4.9387397 2.71924929 -4.9387397 2.71924929 -6.75 4.1875 Z " fill="#FFFFFF" transform="translate(269,179)"/>
<path d="M0 0 C2.5 1.5625 2.5 1.5625 4 4 C4.55802097 7.90614682 4.58392818 10.05111671 2.5 13.4375 C-0.53037069 15.33148168 -2.55830934 15.64334247 -6.08984375 15.4453125 C-8 15 -8 15 -10.5625 12.9375 C-12.43625505 9.10852228 -12.12962701 7.06665724 -11 3 C-8.71707037 -1.16298932 -4.22696498 -0.74843646 0 0 Z M-6.75 4.1875 C-8.29839423 6.00671447 -8.29839423 6.00671447 -7.6875 8.6875 C-7.460625 9.450625 -7.23375 10.21375 -7 11 C-4.60280568 11.67958603 -4.60280568 11.67958603 -2 12 C0.2491908 10.17296773 0.2491908 10.17296773 0.25 7.5 C0.2491908 4.82703227 0.2491908 4.82703227 -2 3 C-4.9387397 2.71924929 -4.9387397 2.71924929 -6.75 4.1875 Z " fill="#FFFFFF" transform="translate(238,179)"/>
<path d="M0 0 C1.32 0 2.64 0 4 0 C4 1.98 4 3.96 4 6 C5.65 6 7.3 6 9 6 C9 4.02 9 2.04 9 0 C9.99 0 10.98 0 12 0 C12 4.95 12 9.9 12 15 C11.01 15 10.02 15 9 15 C9 13.02 9 11.04 9 9 C7.35 9 5.7 9 4 9 C4 10.98 4 12.96 4 15 C2.68 15 1.36 15 0 15 C0 10.05 0 5.1 0 0 Z " fill="#FFFFFF" transform="translate(198,179)"/>
<path d="M0 0 C3 0.1875 3 0.1875 5 1.1875 C4.67 2.1775 4.34 3.1675 4 4.1875 C2.35 4.1875 0.7 4.1875 -1 4.1875 C-0.01 4.744375 0.98 5.30125 2 5.875 C5 8.1875 5 8.1875 5.5 10.8125 C5 13.1875 5 13.1875 3 15.1875 C-3.32258065 15.52620968 -3.32258065 15.52620968 -6 14.1875 C-5.67 13.1975 -5.34 12.2075 -5 11.1875 C-2.03 11.6825 -2.03 11.6825 1 12.1875 C0.11710613 9.92820801 0.11710613 9.92820801 -2.5625 8.875 C-3.366875 8.318125 -4.17125 7.76125 -5 7.1875 C-5.4375 4.625 -5.4375 4.625 -5 2.1875 C-3 0.1875 -3 0.1875 0 0 Z " fill="#FFFFFF" transform="translate(149,178.8125)"/>
<path d="M0 0 C0.66 0.99 1.32 1.98 2 3 C-1.07322544 3.91058531 -3.80097361 4.08886184 -7 4 C-7 5.98 -7 7.96 -7 10 C-6.2575 10.144375 -5.515 10.28875 -4.75 10.4375 C-2.47972261 10.90187492 -0.24240521 11.41863569 2 12 C1.01 13.485 1.01 13.485 0 15 C-3.08554748 15.39813516 -5.04284574 15.6124284 -8 15 C-10.5625 12.9375 -10.5625 12.9375 -12 10 C-12 6.22089384 -11.83289714 3.99306967 -9.375 1.0625 C-6.07883786 -0.41209885 -3.56419259 -0.3960214 0 0 Z " fill="#FFFFFF" transform="translate(181,179)"/>
<path d="M0 0 C3.96 0 7.92 0 12 0 C12 0.99 12 1.98 12 3 C10.68 3 9.36 3 8 3 C8 6.96 8 10.92 8 15 C6.68 15 5.36 15 4 15 C4 11.04 4 7.08 4 3 C2.68 3 1.36 3 0 3 C0 2.01 0 1.02 0 0 Z " fill="#FFFFFF" transform="translate(98,179)"/>
<path d="M0 0 C1.32 0 2.64 0 4 0 C4 3.96 4 7.92 4 12 C5.65 12 7.3 12 9 12 C9 12.99 9 13.98 9 15 C6.03 15 3.06 15 0 15 C0 10.05 0 5.1 0 0 Z " fill="#FFFFFF" transform="translate(289,179)"/>
<path d="M0 0 C1.32 0 2.64 0 4 0 C4 4.95 4 9.9 4 15 C2.68 15 1.36 15 0 15 C0 10.05 0 5.1 0 0 Z " fill="#FFFFFF" transform="translate(79,179)"/>
</svg>